<?xml version="1.0" encoding="UTF-8" standalone="no"?>
<svg
   xmlns:dc="http://purl.org/dc/elements/1.1/"
   xmlns:cc="http://creativecommons.org/ns#"
   xmlns:rdf="http://www.w3.org/1999/02/22-rdf-syntax-ns#"
   xmlns:svg="http://www.w3.org/2000/svg"
   xmlns="http://www.w3.org/2000/svg"
   version="1.1"
   id="svg7241"
   xml:space="preserve"
   width="357.93332"
   height="314.76001"
   viewBox="0 0 357.93332 314.76001"><metadata
     id="metadata7247"><rdf:RDF><cc:Work
         rdf:about=""><dc:format>image/svg+xml</dc:format><dc:type
           rdf:resource="http://purl.org/dc/dcmitype/StillImage" /><dc:title></dc:title></cc:Work></rdf:RDF></metadata><defs
     id="defs7245" /><g
     style="fill:#ffff00"
     id="g7249"
     transform="matrix(1.3333333,0,0,-1.3333333,0,314.76)"><g
       style="fill:#ffff00"
       id="g7251"
       transform="scale(0.1)"><path
         d="M 0,0 H 71.0742 L 1342.66,2236.11 2577.64,62.4883 H 280.199 L 1342.66,1930.45 2317.41,215.73 H 540.723 L 1342.66,1624.44 2055.43,368.5 H 802.758 L 1342.66,1318.31 1794.5,521.75 H 1063.4 L 1342.66,1013 1534.27,674.512 h -210.41 l 45.37,79.187 -53.37,31.313 -98.17,-172.762 h 422.64 L 1342.66,1137.86 957.168,459.359 H 1900.55 L 1342.66,1443.05 696.301,306.012 H 2161.49 L 1342.66,1749.06 434.375,153.469 H 2424.05 L 1342.66,2055.19 173.684,0 H 2684.51 L 1342.66,2360.74 0,0"
         style="fill:#ffff00;fill-opacity:1;fill-rule:nonzero;stroke:none"
         id="path7253" /></g></g></svg>